<?xml version="1.0" standalone="no"?>
<!DOCTYPE svg PUBLIC "-//W3C//DTD SVG 20010904//EN"
 "http://www.w3.org/TR/2001/REC-SVG-20010904/DTD/svg10.dtd">
<svg version="1.0" xmlns="http://www.w3.org/2000/svg"
 width="48.000000pt" height="48.000000pt" viewBox="0 0 48.000000 48.000000"
 preserveAspectRatio="xMidYMid meet">

<g transform="translate(0.000000,48.000000) scale(0.100000,-0.100000)"
fill="#000000" stroke="none">
<path d="M93 323 c20 -65 32 -130 36 -193 l6 -95 58 -1 57 -2 0 77 c0 82 11
116 27 87 8 -14 22 -16 79 -14 l69 3 0 65 0 65 -55 5 c-48 4 -55 8 -58 28 -3
21 0 22 57 22 59 0 61 1 61 25 l0 26 -112 -3 c-110 -3 -112 -3 -119 -28 l-6
-25 -8 28 c-7 25 -10 27 -65 27 l-57 0 30 -97z m287 -68 c0 -24 -3 -25 -55
-25 -52 0 -55 1 -55 25 0 24 3 25 55 25 52 0 55 -1 55 -25z"/>
</g>
</svg>
